<?xml version="1.0" encoding="utf-8"?>
<!-- Generator: Adobe Illustrator 16.0.0, SVG Export Plug-In . SVG Version: 6.00 Build 0)  -->
<!DOCTYPE svg PUBLIC "-//W3C//DTD SVG 1.1//EN" "http://www.w3.org/Graphics/SVG/1.1/DTD/svg11.dtd">
<svg version="1.1" id="Layer_1" xmlns="http://www.w3.org/2000/svg" xmlns:xlink="http://www.w3.org/1999/xlink" x="0px" y="0px"
	 width="400px" height="400px" viewBox="0 0 400 400" enable-background="new 0 0 400 400" xml:space="preserve">
<g>
	<g>
		<g>
			<g>
				<path fill="#1C75BC" d="M-769.803,297.109c-1.065,0-2.103-0.544-2.688-1.528c-1.212-2.037-1.853-4.372-1.853-6.753V101.35
					c0-7.288,5.928-13.216,13.216-13.216h284.25c7.287,0,13.216,5.928,13.216,13.216v187.478c0,2.354-0.629,4.669-1.819,6.693
					c-0.875,1.488-2.787,1.984-4.278,1.109c-1.487-0.875-1.984-2.79-1.109-4.277c0.625-1.062,0.957-2.281,0.957-3.525V101.35
					c0-3.841-3.125-6.966-6.966-6.966h-284.247c-3.841,0-6.966,3.125-6.966,6.966v187.478c0,1.256,0.338,2.484,0.975,3.557
					c0.881,1.484,0.394,3.399-1.087,4.284C-768.709,296.966-769.259,297.109-769.803,297.109z"/>
			</g>
			<g>
				<path fill="#1C75BC" d="M-483.662,280.575h-271.182c-0.862,0-1.562-0.7-1.562-1.562V107.138c0-0.863,0.7-1.562,1.562-1.562
					h271.182c0.862,0,1.562,0.7,1.562,1.562v171.875C-482.1,279.875-482.8,280.575-483.662,280.575z M-753.281,277.45h268.057V108.7
					h-268.057V277.45z"/>
			</g>
		</g>
		<g>
			<g>
				<g>
					<path fill="#1C75BC" d="M-451.662,313.865h-335.351c-15.472,0-21.284-6.462-21.894-7.199c-0.466-0.562-0.719-1.27-0.719-1.997
						v-9.716c0-1.725,1.4-3.125,3.125-3.125s3.125,1.4,3.125,3.125v8.35c1.712,1.332,6.628,4.312,16.366,4.312h335.35
						c9.759,0,15.075-2.959,17.037-4.353v-6.672c0-1.726,1.4-3.125,3.125-3.125c1.726,0,3.125,1.399,3.125,3.125v8.144
						c0,0.8-0.31,1.572-0.859,2.153C-429.51,307.175-436.053,313.865-451.662,313.865z"/>
				</g>
				<g>
					<path fill="#1C75BC" d="M-806.5,304.669c-1.725,0-3.125-1.4-3.125-3.125v-6.856c0-1.947,1.584-3.528,3.528-3.528h374.193
						c1.947,0,3.528,1.581,3.528,3.528v5.49c0,1.726-1.4,3.125-3.125,3.125s-3.125-1.399-3.125-3.125v-2.769h-368.75v4.132
						C-803.375,303.269-804.775,304.669-806.5,304.669z"/>
				</g>
				<g>
					<path fill="#1C75BC" d="M-599.219,301.503h-40.95c-3.344,0-8.228-1.696-8.597-5.334c-0.016-0.085-0.022-0.172-0.022-0.26
						v-0.253c0-0.862,0.7-1.562,1.562-1.562c0.863,0,1.562,0.7,1.562,1.562c0,1.472,3.072,2.722,5.494,2.722h40.95
						c1.425,0,4.275-1.209,4.428-2.865c0.082-0.859,0.848-1.497,1.7-1.413c0.859,0.082,1.491,0.844,1.413,1.7
						C-592.031,299.6-596.703,301.503-599.219,301.503z"/>
				</g>
			</g>
		</g>
	</g>
</g>
<path fill="#1C75BC" d="M-831.143,193.075c0-2.459-0.248-4.853-0.621-7.209l14.621-12.791l-12.422-20.391l-17.438,5.696
	c-4.168-3.625-8.992-6.492-14.275-8.438l-3.865-16.867h-24l-3.865,16.867c-5.283,1.946-10.11,4.813-14.28,8.44l-17.435-5.7
	l-12.42,20.393l14.619,12.795c-0.371,2.353-0.619,4.748-0.619,7.205c0,2.459,0.248,4.854,0.619,7.207l-14.619,12.793l12.424,20.391
	l17.431-5.696c4.17,3.626,8.997,6.493,14.28,8.438l3.865,16.867h24l3.865-16.867c5.283-1.945,10.107-4.812,14.275-8.438
	l17.436,5.697l12.424-20.393l-14.621-12.789C-831.391,197.931-831.143,195.534-831.143,193.075 M-822.311,213.869l-9.024,14.812
	l-14.425-4.714l-2.156-0.704l-1.711,1.488c-3.842,3.341-8.226,5.934-13.032,7.702l-2.033,0.749l-0.484,2.111l-3.152,13.761h-17.626
	l-3.153-13.761l-0.484-2.111l-2.033-0.749c-4.809-1.771-9.195-4.362-13.037-7.704l-1.711-1.488l-2.156,0.704l-14.421,4.714
	l-9.025-14.811l12.086-10.577l1.661-1.453l-0.344-2.18c-0.383-2.434-0.57-4.587-0.57-6.584c0-1.995,0.187-4.148,0.57-6.582
	l0.344-2.18l-1.661-1.453l-12.086-10.578l9.022-14.813l14.424,4.715l2.156,0.705l1.711-1.489c3.842-3.342,8.228-5.933,13.037-7.704
	l2.033-0.749l0.484-2.111l3.153-13.761h17.626l3.152,13.761l0.484,2.111l2.033,0.749c4.807,1.77,9.19,4.361,13.032,7.702
	l1.711,1.488l2.155-0.704l14.428-4.712l9.023,14.811l-12.088,10.574l-1.662,1.455l0.345,2.182c0.386,2.429,0.572,4.583,0.572,6.583
	c0,2.002-0.187,4.156-0.572,6.586l-0.345,2.181l1.662,1.455L-822.311,213.869z"/>
<path fill="#1C75BC" d="M-877.143,169.075c-13.258,0-24,10.738-24,24c0,13.262,10.742,24,24,24c13.262,0,24-10.738,24-24
	C-853.143,179.813-863.881,169.075-877.143,169.075 M-877.143,201.075c-4.414,0-8-3.582-8-8s3.586-8,8-8s8,3.582,8,8
	S-872.729,201.075-877.143,201.075"/>
<path fill="#1C75BC" d="M-315.873,148c-8,0-16,4-20,8c-4-4-12-8-20-8h-32v96h32c8,0,16,4,20,8c4-4,12-8,20-8h32v-96H-315.873z
	 M-335.873,246.769c-4.871-3.58-12.316-6.769-20-6.769h-28v-88h28c6.79,0,13.777,3.435,17.172,6.829l2.828,2.828V246.769z
	 M-295.873,216h-28v-4h28V216z M-295.873,204h-28v-4h28V204z M-295.873,192h-28v-4h28V192z M-295.873,180h-28v-4h28V180z"/>
<path fill="#1C75BC" d="M-574.062,154.061C-582.746,145.374-594.746,140-608,140c-13.253,0-25.253,5.373-33.938,14.06
	C-650.625,162.746-656,174.746-656,188c0,4.163,0.531,8.201,1.528,12.053c-0.506-0.032-1.015-0.054-1.528-0.054
	c-6.625,0-12.625,2.688-16.969,7.031C-677.312,211.373-680,217.373-680,224c0,7.016,2.687,13.371,7.031,17.969L-656,260v-12
	c6.625,0,12.625-2.688,16.968-7.031c3.166-3.165,5.447-7.213,6.454-11.74C-625.389,233.525-616.984,236-608,236v24l33.938-36.064
	C-565.375,214.74-560,202.033-560,188C-560,174.746-565.375,162.746-574.062,154.061 M-576.976,221.194L-604,249.912V236v-4h-4
	c-8.664,0-16.939-2.495-24.021-7.132c0.01-0.288,0.022-0.577,0.022-0.868c0-6.627-2.688-12.627-7.032-16.969
	c-3.017-3.018-6.836-5.233-11.107-6.307C-651.364,196.65-652,192.375-652,188c0-11.752,4.578-22.8,12.891-31.112
	C-630.801,148.577-619.753,144-608,144s22.801,4.577,31.109,12.889C-568.577,165.2-564,176.249-564,188
	C-564,200.549-568.606,212.336-576.976,221.194"/>
<path fill="#1C75BC" d="M-608,182c-3.313,0-6,2.686-6,6s2.687,6,6,6s6-2.686,6-6S-604.687,182-608,182"/>
<path fill="#1C75BC" d="M-588,182c-3.313,0-6,2.686-6,6s2.687,6,6,6s6-2.686,6-6S-584.687,182-588,182"/>
<path fill="#1C75BC" d="M-628,182c-3.313,0-6,2.686-6,6s2.687,6,6,6s6-2.686,6-6S-624.687,182-628,182"/>
<path fill="#1C75BC" d="M-431.587,27.396v16v80h120v-80v-16H-431.587z M-315.587,119.396h-112v-22h112V119.396z M-315.587,93.396
	h-112v-20h112V93.396z M-315.587,69.396h-112v-22h112V69.396z"/>
<path fill="#028571" d="M183.144,117.317c0-3.785-0.382-7.469-0.956-11.096l22.504-19.687l-19.119-31.384l-26.838,8.767
	c-6.415-5.579-13.84-9.991-21.971-12.987l-5.949-25.959H93.876l-5.948,25.959c-8.132,2.996-15.562,7.408-21.979,12.991
	l-26.834-8.773L20,86.535l22.5,19.693c-0.571,3.621-0.953,7.308-0.953,11.089c0,3.784,0.382,7.47,0.953,11.092L20,148.099
	l19.121,31.383l26.828-8.767c6.417,5.581,13.847,9.994,21.979,12.988l5.948,25.96h36.938l5.949-25.96
	c8.131-2.994,15.556-7.407,21.971-12.986l26.835,8.769l19.122-31.386l-22.504-19.684
	C182.762,124.79,183.144,121.102,183.144,117.317 M196.737,149.321l-13.892,22.798l-22.199-7.255l-3.318-1.084l-2.634,2.291
	c-5.913,5.142-12.661,9.132-20.06,11.854l-3.129,1.153l-0.745,3.25l-4.853,21.179H98.78l-4.853-21.179l-0.746-3.25l-3.128-1.153
	c-7.402-2.727-14.152-6.714-20.064-11.857l-2.634-2.291l-3.318,1.084l-22.195,7.255l-13.891-22.795l18.602-16.279l2.558-2.237
	l-0.53-3.354c-0.59-3.746-0.876-7.06-0.876-10.133c0-3.071,0.286-6.383,0.876-10.13l0.53-3.356l-2.558-2.236L27.951,85.315
	l13.886-22.798l22.2,7.256l3.318,1.085l2.634-2.292c5.912-5.143,12.662-9.131,20.064-11.856l3.128-1.153l0.746-3.25l4.853-21.179
	h27.128l4.853,21.179l0.745,3.25l3.129,1.153c7.398,2.724,14.146,6.712,20.06,11.854l2.634,2.291l3.315-1.083l22.205-7.252
	l13.889,22.795l-18.604,16.274l-2.559,2.24l0.532,3.358c0.592,3.738,0.881,7.054,0.881,10.132c0,3.081-0.289,6.396-0.881,10.136
	l-0.532,3.356l2.559,2.24L196.737,149.321z"/>
<path fill="#028571" d="M112.346,80.379c-20.405,0-36.938,16.526-36.938,36.938c0,20.411,16.533,36.938,36.938,36.938
	c20.411,0,36.938-16.527,36.938-36.938C149.283,96.905,132.757,80.379,112.346,80.379 M112.346,129.63
	c-6.794,0-12.312-5.513-12.312-12.312c0-6.8,5.519-12.313,12.312-12.313c6.793,0,12.312,5.513,12.312,12.313
	C124.658,124.117,119.139,129.63,112.346,129.63"/>
<path fill="#028571" d="M238.551,282.684c0-3.784-0.382-7.467-0.956-11.095l22.504-19.687l-19.119-31.384l-26.838,8.766
	c-6.415-5.579-13.84-9.988-21.971-12.985l-5.949-25.96h-36.938l-5.948,25.96c-8.132,2.997-15.561,7.406-21.979,12.992l-26.834-8.775
	l-19.115,31.387l22.5,19.692c-0.571,3.622-0.953,7.308-0.953,11.089c0,3.785,0.382,7.471,0.953,11.093l-22.5,19.689l19.121,31.383
	l26.828-8.766c6.418,5.579,13.847,9.992,21.979,12.986l5.948,25.96h36.938l5.949-25.96c8.131-2.994,15.556-7.407,21.971-12.986
	l26.835,8.769l19.122-31.386l-22.504-19.684C238.169,290.157,238.551,286.469,238.551,282.684 M252.145,314.689l-13.892,22.798
	l-22.199-7.257l-3.318-1.082l-2.634,2.29c-5.913,5.141-12.661,9.133-20.059,11.854l-3.13,1.154l-0.745,3.249l-4.852,21.178h-27.129
	l-4.853-21.178l-0.746-3.249l-3.127-1.154c-7.402-2.727-14.153-6.713-20.065-11.856l-2.634-2.29l-3.318,1.082l-22.195,7.256
	l-13.891-22.794l18.602-16.281l2.558-2.236l-0.53-3.354c-0.589-3.746-0.876-7.059-0.876-10.134c0-3.069,0.287-6.382,0.876-10.13
	l0.53-3.354l-2.558-2.237l-18.602-16.28l13.886-22.798l22.2,7.257l3.318,1.085l2.634-2.291c5.912-5.143,12.663-9.132,20.065-11.858
	l3.127-1.151l0.746-3.25l4.853-21.18h27.129l4.852,21.18l0.745,3.25l3.13,1.151c7.397,2.727,14.146,6.713,20.059,11.855l2.634,2.291
	l3.315-1.085l22.205-7.251l13.889,22.795l-18.604,16.274l-2.559,2.239l0.532,3.358c0.592,3.736,0.881,7.052,0.881,10.13
	c0,3.081-0.289,6.397-0.881,10.137l-0.532,3.357l2.559,2.239L252.145,314.689z"/>
<path fill="#028571" d="M167.753,245.746c-20.405,0-36.938,16.526-36.938,36.938s16.533,36.938,36.938,36.938
	c20.411,0,36.938-16.527,36.938-36.938S188.164,245.746,167.753,245.746 M167.753,294.996c-6.794,0-12.312-5.513-12.312-12.312
	s5.519-12.312,12.312-12.312s12.312,5.513,12.312,12.312S174.547,294.996,167.753,294.996"/>
<path fill="#028571" d="M358.453,154.255c0-3.785-0.382-7.468-0.956-11.095L380,123.474l-19.118-31.385l-26.838,8.767
	c-6.415-5.579-13.84-9.99-21.972-12.987l-5.948-25.958h-36.938l-5.949,25.958c-8.131,2.997-15.561,7.408-21.979,12.992
	l-26.833-8.775l-19.116,31.388l22.501,19.692c-0.571,3.621-0.953,7.308-0.953,11.089c0,3.785,0.382,7.47,0.953,11.092
	l-22.501,19.689l19.122,31.385l26.827-8.769c6.418,5.582,13.848,9.995,21.979,12.989l5.949,25.96h36.938l5.948-25.96
	c8.132-2.994,15.557-7.407,21.972-12.988l26.835,8.771L380,185.037l-22.503-19.684C358.071,161.729,358.453,158.04,358.453,154.255
	 M372.046,186.259l-13.891,22.797l-22.2-7.255l-3.318-1.083l-2.633,2.291c-5.913,5.142-12.662,9.133-20.06,11.855l-3.129,1.151
	l-0.746,3.25l-4.852,21.181H274.09l-4.854-21.181l-0.745-3.25l-3.128-1.151c-7.402-2.727-14.152-6.715-20.065-11.858l-2.633-2.291
	l-3.319,1.083l-22.194,7.255l-13.892-22.794l18.602-16.279l2.559-2.236l-0.531-3.355c-0.589-3.746-0.876-7.06-0.876-10.133
	c0-3.071,0.287-6.383,0.876-10.13l0.531-3.356l-2.559-2.236l-18.602-16.279l13.887-22.799l22.199,7.257l3.319,1.085l2.633-2.291
	c5.913-5.143,12.663-9.132,20.065-11.857l3.128-1.153l0.745-3.25l4.854-21.179h27.128l4.852,21.179l0.746,3.25l3.129,1.153
	c7.397,2.725,14.146,6.711,20.06,11.854l2.633,2.291l3.315-1.085l22.206-7.25l13.888,22.794l-18.604,16.275l-2.558,2.239
	l0.532,3.358c0.592,3.738,0.88,7.054,0.88,10.132c0,3.081-0.288,6.397-0.88,10.136l-0.532,3.356l2.558,2.239L372.046,186.259z"/>
<path fill="#028571" d="M287.654,117.317c-20.404,0-36.938,16.525-36.938,36.938c0,20.411,16.533,36.938,36.938,36.938
	c20.411,0,36.938-16.527,36.938-36.938C324.593,133.843,308.065,117.317,287.654,117.317 M287.654,166.568
	c-6.793,0-12.312-5.513-12.312-12.313s5.52-12.312,12.312-12.312c6.794,0,12.312,5.513,12.312,12.312
	S294.448,166.568,287.654,166.568"/>
<path fill="#028571" d="M681.538,40c-24.615,0-49.23,12.308-61.538,24.615C607.692,52.308,583.077,40,558.462,40H460v295.385h98.462
	c24.615,0,49.23,12.308,61.538,24.615c12.308-12.308,36.923-24.615,61.538-24.615H780V40H681.538z M620,343.903
	c-14.988-11.016-37.896-20.826-61.538-20.826h-86.154V52.308h86.154c20.893,0,42.392,10.569,52.836,21.013L620,82.022V343.903z
	 M743.077,249.23h-86.154v-12.308h86.154V249.23z M743.077,212.308h-86.154V200h86.154V212.308z M743.077,175.385h-86.154v-12.308
	h86.154V175.385z M743.077,138.461h-86.154v-12.308h86.154V138.461z"/>
<path fill="#028571" d="M1138.604,209.602l-15.792-15.785c-11.36,11.364-24.658,20.214-39.602,26.388l-25.76-74.07
	c13.813-7.595,23.184-22.274,23.184-39.152c0-20.797-14.241-38.224-33.491-43.191V39.999h-22.327V63.79
	c-19.251,4.968-33.491,22.395-33.491,43.191c0,16.878,9.37,31.558,23.186,39.152l-73.115,210.198l10.548,3.669l39.968-114.913
	c14.284,4.544,29.171,6.844,44.068,6.844c14.896,0,29.788-2.303,44.069-6.844l39.967,114.913l10.548-3.669l-40.008-115.019
	C1108.702,234.001,1124.843,223.368,1138.604,209.602 M1035.979,95.817c6.165,0,11.164,4.999,11.164,11.164
	s-4.999,11.164-11.164,11.164s-11.163-4.999-11.163-11.164S1029.814,95.817,1035.979,95.817 M999.248,224.001l25.669-73.801
	c3.543,0.903,7.233,1.437,11.062,1.437c3.827,0,7.521-0.533,11.063-1.437l25.669,73.801
	C1048.88,231.452,1023.08,231.452,999.248,224.001"/>
</svg>
