<?xml version="1.0" encoding="utf-8"?>
<!-- Generator: Adobe Illustrator 16.0.0, SVG Export Plug-In . SVG Version: 6.00 Build 0)  -->
<!DOCTYPE svg PUBLIC "-//W3C//DTD SVG 1.1//EN" "http://www.w3.org/Graphics/SVG/1.1/DTD/svg11.dtd">
<svg version="1.1" id="Layer_1" xmlns="http://www.w3.org/2000/svg" xmlns:xlink="http://www.w3.org/1999/xlink" x="0px" y="0px"
	 width="400px" height="400px" viewBox="0 0 400 400" enable-background="new 0 0 400 400" xml:space="preserve">
<g>
	<g>
		<g>
			<g>
				<path fill="#1C75BC" d="M-3289.803,297.109c-1.065,0-2.103-0.544-2.688-1.528c-1.212-2.037-1.853-4.372-1.853-6.753V101.35
					c0-7.288,5.928-13.216,13.216-13.216h284.25c7.287,0,13.216,5.928,13.216,13.216v187.478c0,2.354-0.629,4.669-1.819,6.693
					c-0.875,1.488-2.787,1.984-4.278,1.109c-1.487-0.875-1.984-2.79-1.109-4.277c0.625-1.062,0.957-2.281,0.957-3.525V101.35
					c0-3.841-3.125-6.966-6.966-6.966h-284.247c-3.841,0-6.966,3.125-6.966,6.966v187.478c0,1.256,0.338,2.484,0.975,3.557
					c0.881,1.484,0.394,3.399-1.087,4.284C-3288.709,296.966-3289.259,297.109-3289.803,297.109z"/>
			</g>
			<g>
				<path fill="#1C75BC" d="M-3003.662,280.575h-271.182c-0.862,0-1.562-0.7-1.562-1.562V107.138c0-0.863,0.7-1.562,1.562-1.562
					h271.182c0.862,0,1.562,0.7,1.562,1.562v171.875C-3002.1,279.875-3002.8,280.575-3003.662,280.575z M-3273.281,277.45h268.057
					V108.7h-268.057V277.45z"/>
			</g>
		</g>
		<g>
			<g>
				<g>
					<path fill="#1C75BC" d="M-2971.662,313.865h-335.351c-15.472,0-21.284-6.462-21.894-7.199c-0.466-0.562-0.719-1.27-0.719-1.997
						v-9.716c0-1.725,1.4-3.125,3.125-3.125s3.125,1.4,3.125,3.125v8.35c1.712,1.332,6.628,4.312,16.366,4.312h335.35
						c9.759,0,15.075-2.959,17.037-4.353v-6.672c0-1.726,1.4-3.125,3.125-3.125c1.726,0,3.125,1.399,3.125,3.125v8.144
						c0,0.8-0.31,1.572-0.859,2.153C-2949.51,307.175-2956.053,313.865-2971.662,313.865z"/>
				</g>
				<g>
					<path fill="#1C75BC" d="M-3326.5,304.669c-1.725,0-3.125-1.4-3.125-3.125v-6.856c0-1.947,1.584-3.528,3.528-3.528h374.193
						c1.947,0,3.528,1.581,3.528,3.528v5.49c0,1.726-1.4,3.125-3.125,3.125s-3.125-1.399-3.125-3.125v-2.769h-368.75v4.132
						C-3323.375,303.269-3324.775,304.669-3326.5,304.669z"/>
				</g>
				<g>
					<path fill="#1C75BC" d="M-3119.219,301.503h-40.95c-3.344,0-8.228-1.696-8.597-5.334c-0.016-0.085-0.022-0.172-0.022-0.26
						v-0.253c0-0.862,0.7-1.562,1.562-1.562c0.863,0,1.562,0.7,1.562,1.562c0,1.472,3.072,2.722,5.494,2.722h40.95
						c1.425,0,4.275-1.209,4.428-2.865c0.082-0.859,0.848-1.497,1.7-1.413c0.859,0.082,1.491,0.844,1.413,1.7
						C-3112.031,299.6-3116.703,301.503-3119.219,301.503z"/>
				</g>
			</g>
		</g>
	</g>
</g>
<path fill="#1C75BC" d="M-3351.143,193.075c0-2.459-0.248-4.853-0.621-7.209l14.621-12.791l-12.422-20.391l-17.438,5.696
	c-4.168-3.625-8.992-6.492-14.275-8.438l-3.865-16.867h-24l-3.865,16.867c-5.283,1.946-10.11,4.813-14.28,8.44l-17.435-5.7
	l-12.42,20.393l14.619,12.795c-0.371,2.353-0.619,4.748-0.619,7.205c0,2.459,0.248,4.854,0.619,7.207l-14.619,12.793l12.424,20.391
	l17.431-5.696c4.17,3.626,8.997,6.493,14.28,8.438l3.865,16.867h24l3.865-16.867c5.283-1.945,10.107-4.812,14.275-8.438
	l17.436,5.697l12.424-20.393l-14.621-12.789C-3351.391,197.931-3351.143,195.534-3351.143,193.075 M-3342.311,213.869l-9.024,14.812
	l-14.425-4.714l-2.156-0.704l-1.711,1.488c-3.842,3.341-8.226,5.934-13.032,7.702l-2.033,0.749l-0.484,2.111l-3.152,13.761h-17.626
	l-3.153-13.761l-0.484-2.111l-2.033-0.749c-4.809-1.771-9.195-4.362-13.037-7.704l-1.711-1.488l-2.156,0.704l-14.421,4.714
	l-9.025-14.811l12.086-10.577l1.661-1.453l-0.344-2.18c-0.383-2.434-0.57-4.587-0.57-6.584c0-1.995,0.187-4.148,0.57-6.582
	l0.344-2.18l-1.661-1.453l-12.086-10.578l9.022-14.813l14.424,4.715l2.156,0.705l1.711-1.489c3.842-3.342,8.228-5.933,13.037-7.704
	l2.033-0.749l0.484-2.111l3.153-13.761h17.626l3.152,13.761l0.484,2.111l2.033,0.749c4.807,1.77,9.19,4.361,13.032,7.702
	l1.711,1.488l2.155-0.704l14.428-4.712l9.023,14.811l-12.088,10.574l-1.662,1.455l0.345,2.182c0.386,2.429,0.572,4.583,0.572,6.583
	c0,2.002-0.187,4.156-0.572,6.586l-0.345,2.181l1.662,1.455L-3342.311,213.869z"/>
<path fill="#1C75BC" d="M-3397.143,169.075c-13.258,0-24,10.738-24,24c0,13.262,10.742,24,24,24c13.262,0,24-10.738,24-24
	C-3373.143,179.813-3383.881,169.075-3397.143,169.075 M-3397.143,201.075c-4.414,0-8-3.582-8-8s3.586-8,8-8s8,3.582,8,8
	S-3392.729,201.075-3397.143,201.075"/>
<path fill="#1C75BC" d="M-2835.873,148c-8,0-16,4-20,8c-4-4-12-8-20-8h-32v96h32c8,0,16,4,20,8c4-4,12-8,20-8h32v-96H-2835.873z
	 M-2855.873,246.769c-4.871-3.58-12.316-6.769-20-6.769h-28v-88h28c6.79,0,13.777,3.435,17.172,6.829l2.828,2.828V246.769z
	 M-2815.873,216h-28v-4h28V216z M-2815.873,204h-28v-4h28V204z M-2815.873,192h-28v-4h28V192z M-2815.873,180h-28v-4h28V180z"/>
<path fill="#1C75BC" d="M-3094.062,154.061c-8.684-8.687-20.684-14.06-33.938-14.06c-13.253,0-25.253,5.373-33.938,14.06
	c-8.687,8.686-14.062,20.686-14.062,33.94c0,4.163,0.531,8.201,1.528,12.053c-0.506-0.032-1.015-0.054-1.528-0.054
	c-6.625,0-12.625,2.688-16.969,7.031c-4.344,4.342-7.031,10.342-7.031,16.969c0,7.016,2.687,13.371,7.031,17.969L-3176,260v-12
	c6.625,0,12.625-2.688,16.968-7.031c3.166-3.165,5.447-7.213,6.454-11.74c7.189,4.297,15.593,6.771,24.578,6.771v24l33.938-36.064
	C-3085.375,214.74-3080,202.033-3080,188C-3080,174.746-3085.375,162.746-3094.062,154.061 M-3096.976,221.194L-3124,249.912V236v-4
	h-4c-8.664,0-16.939-2.495-24.021-7.132c0.01-0.288,0.022-0.577,0.022-0.868c0-6.627-2.688-12.627-7.032-16.969
	c-3.017-3.018-6.836-5.233-11.107-6.307c-1.225-4.074-1.861-8.35-1.861-12.724c0-11.752,4.578-22.8,12.891-31.112
	c8.308-8.311,19.355-12.888,31.108-12.888s22.801,4.577,31.109,12.889C-3088.577,165.2-3084,176.249-3084,188
	C-3084,200.549-3088.606,212.336-3096.976,221.194"/>
<path fill="#1C75BC" d="M-3128,182c-3.313,0-6,2.686-6,6s2.687,6,6,6s6-2.686,6-6S-3124.687,182-3128,182"/>
<path fill="#1C75BC" d="M-3108,182c-3.313,0-6,2.686-6,6s2.687,6,6,6s6-2.686,6-6S-3104.687,182-3108,182"/>
<path fill="#1C75BC" d="M-3148,182c-3.313,0-6,2.686-6,6s2.687,6,6,6s6-2.686,6-6S-3144.687,182-3148,182"/>
<path fill="#1C75BC" d="M-2951.587,27.396v16v80h120v-80v-16H-2951.587z M-2835.587,119.396h-112v-22h112V119.396z
	 M-2835.587,93.396h-112v-20h112V93.396z M-2835.587,69.396h-112v-22h112V69.396z"/>
<path fill="#028571" d="M-2336.856,117.317c0-3.785-0.382-7.469-0.956-11.096l22.504-19.687l-19.119-31.384l-26.838,8.767
	c-6.415-5.579-13.84-9.991-21.971-12.987l-5.949-25.959h-36.938l-5.948,25.959c-8.132,2.996-15.562,7.408-21.979,12.991
	l-26.834-8.773L-2500,86.535l22.5,19.693c-0.571,3.621-0.953,7.308-0.953,11.089c0,3.784,0.382,7.47,0.953,11.092l-22.5,19.689
	l19.121,31.383l26.828-8.767c6.417,5.581,13.847,9.994,21.979,12.988l5.948,25.96h36.938l5.949-25.96
	c8.131-2.994,15.556-7.407,21.971-12.986l26.835,8.769l19.122-31.386l-22.504-19.684
	C-2337.238,124.79-2336.856,121.102-2336.856,117.317 M-2323.263,149.321l-13.892,22.798l-22.199-7.255l-3.318-1.084l-2.634,2.291
	c-5.913,5.142-12.661,9.132-20.06,11.854l-3.129,1.153l-0.745,3.25l-4.853,21.179h-27.128l-4.853-21.179l-0.746-3.25l-3.128-1.153
	c-7.402-2.727-14.152-6.714-20.064-11.857l-2.634-2.291l-3.318,1.084l-22.195,7.255l-13.891-22.795l18.602-16.279l2.558-2.237
	l-0.53-3.354c-0.59-3.746-0.876-7.06-0.876-10.133c0-3.071,0.286-6.383,0.876-10.13l0.53-3.356l-2.558-2.236l-18.602-16.279
	l13.886-22.798l22.2,7.256l3.318,1.085l2.634-2.292c5.912-5.143,12.662-9.131,20.064-11.856l3.128-1.153l0.746-3.25l4.853-21.179
	h27.128l4.853,21.179l0.745,3.25l3.129,1.153c7.398,2.724,14.146,6.712,20.06,11.854l2.634,2.291l3.315-1.083l22.205-7.252
	l13.889,22.795l-18.604,16.274l-2.559,2.24l0.532,3.358c0.592,3.738,0.881,7.054,0.881,10.132c0,3.081-0.289,6.396-0.881,10.136
	l-0.532,3.356l2.559,2.24L-2323.263,149.321z"/>
<path fill="#028571" d="M-2407.654,80.379c-20.405,0-36.938,16.526-36.938,36.938c0,20.411,16.533,36.938,36.938,36.938
	c20.411,0,36.938-16.527,36.938-36.938C-2370.717,96.905-2387.243,80.379-2407.654,80.379 M-2407.654,129.63
	c-6.794,0-12.312-5.513-12.312-12.312c0-6.8,5.519-12.313,12.312-12.313c6.793,0,12.312,5.513,12.312,12.313
	C-2395.342,124.117-2400.861,129.63-2407.654,129.63"/>
<path fill="#028571" d="M-2281.449,282.684c0-3.784-0.382-7.467-0.956-11.095l22.504-19.687l-19.119-31.384l-26.838,8.766
	c-6.415-5.579-13.84-9.988-21.971-12.985l-5.949-25.96h-36.938l-5.948,25.96c-8.132,2.997-15.561,7.406-21.979,12.992l-26.834-8.775
	l-19.115,31.387l22.5,19.692c-0.571,3.622-0.953,7.308-0.953,11.089c0,3.785,0.382,7.471,0.953,11.093l-22.5,19.689l19.121,31.383
	l26.828-8.766c6.418,5.579,13.847,9.992,21.979,12.986l5.948,25.96h36.938l5.949-25.96c8.131-2.994,15.556-7.407,21.971-12.986
	l26.835,8.769l19.122-31.386l-22.504-19.684C-2281.831,290.157-2281.449,286.469-2281.449,282.684 M-2267.855,314.689
	l-13.892,22.798l-22.199-7.257l-3.318-1.082l-2.634,2.29c-5.913,5.141-12.661,9.133-20.059,11.854l-3.13,1.154l-0.745,3.249
	l-4.852,21.178h-27.129l-4.853-21.178l-0.746-3.249l-3.127-1.154c-7.402-2.727-14.153-6.713-20.065-11.856l-2.634-2.29l-3.318,1.082
	l-22.195,7.256l-13.891-22.794l18.602-16.281l2.558-2.236l-0.53-3.354c-0.589-3.746-0.876-7.059-0.876-10.134
	c0-3.069,0.287-6.382,0.876-10.13l0.53-3.354l-2.558-2.237l-18.602-16.28l13.886-22.798l22.2,7.257l3.318,1.085l2.634-2.291
	c5.912-5.143,12.663-9.132,20.065-11.858l3.127-1.151l0.746-3.25l4.853-21.18h27.129l4.852,21.18l0.745,3.25l3.13,1.151
	c7.397,2.727,14.146,6.713,20.059,11.855l2.634,2.291l3.315-1.085l22.205-7.251l13.889,22.795l-18.604,16.274l-2.559,2.239
	l0.532,3.358c0.592,3.736,0.881,7.052,0.881,10.13c0,3.081-0.289,6.397-0.881,10.137l-0.532,3.357l2.559,2.239L-2267.855,314.689z"
	/>
<path fill="#028571" d="M-2352.247,245.746c-20.405,0-36.938,16.526-36.938,36.938s16.533,36.938,36.938,36.938
	c20.411,0,36.938-16.527,36.938-36.938S-2331.836,245.746-2352.247,245.746 M-2352.247,294.996c-6.794,0-12.312-5.513-12.312-12.312
	s5.519-12.312,12.312-12.312s12.312,5.513,12.312,12.312S-2345.453,294.996-2352.247,294.996"/>
<path fill="#028571" d="M-2161.547,154.255c0-3.785-0.382-7.468-0.956-11.095l22.503-19.687l-19.118-31.385l-26.838,8.767
	c-6.415-5.579-13.84-9.99-21.972-12.987l-5.948-25.958h-36.938l-5.949,25.958c-8.131,2.997-15.561,7.408-21.979,12.992
	l-26.833-8.775l-19.116,31.388l22.501,19.692c-0.571,3.621-0.953,7.308-0.953,11.089c0,3.785,0.382,7.47,0.953,11.092
	l-22.501,19.689l19.122,31.385l26.827-8.769c6.418,5.582,13.848,9.995,21.979,12.989l5.949,25.96h36.938l5.948-25.96
	c8.132-2.994,15.557-7.407,21.972-12.988l26.835,8.771l19.121-31.388l-22.503-19.684
	C-2161.929,161.729-2161.547,158.04-2161.547,154.255 M-2147.954,186.259l-13.891,22.797l-22.2-7.255l-3.318-1.083l-2.633,2.291
	c-5.913,5.142-12.662,9.133-20.06,11.855l-3.129,1.151l-0.746,3.25l-4.852,21.181h-27.128l-4.854-21.181l-0.745-3.25l-3.128-1.151
	c-7.402-2.727-14.152-6.715-20.065-11.858l-2.633-2.291l-3.319,1.083l-22.194,7.255l-13.892-22.794l18.602-16.279l2.559-2.236
	l-0.531-3.355c-0.589-3.746-0.876-7.06-0.876-10.133c0-3.071,0.287-6.383,0.876-10.13l0.531-3.356l-2.559-2.236l-18.602-16.279
	l13.887-22.799l22.199,7.257l3.319,1.085l2.633-2.291c5.913-5.143,12.663-9.132,20.065-11.857l3.128-1.153l0.745-3.25l4.854-21.179
	h27.128l4.852,21.179l0.746,3.25l3.129,1.153c7.397,2.725,14.146,6.711,20.06,11.854l2.633,2.291l3.315-1.085l22.206-7.25
	l13.888,22.794l-18.604,16.275l-2.558,2.239l0.532,3.358c0.592,3.738,0.88,7.054,0.88,10.132c0,3.081-0.288,6.397-0.88,10.136
	l-0.532,3.356l2.558,2.239L-2147.954,186.259z"/>
<path fill="#028571" d="M-2232.346,117.317c-20.404,0-36.938,16.525-36.938,36.938c0,20.411,16.533,36.938,36.938,36.938
	c20.411,0,36.938-16.527,36.938-36.938C-2195.407,133.843-2211.935,117.317-2232.346,117.317 M-2232.346,166.568
	c-6.793,0-12.312-5.513-12.312-12.313s5.52-12.312,12.312-12.312c6.794,0,12.312,5.513,12.312,12.312
	S-2225.552,166.568-2232.346,166.568"/>
<path fill="#028571" d="M-1381.396,209.602l-15.792-15.785c-11.36,11.364-24.658,20.214-39.602,26.388l-25.76-74.07
	c13.813-7.595,23.184-22.274,23.184-39.152c0-20.797-14.241-38.224-33.491-43.191V39.999h-22.327V63.79
	c-19.251,4.968-33.491,22.395-33.491,43.191c0,16.878,9.37,31.558,23.186,39.152l-73.115,210.198l10.548,3.669l39.968-114.913
	c14.284,4.544,29.171,6.844,44.068,6.844c14.896,0,29.788-2.303,44.069-6.844l39.967,114.913l10.548-3.669l-40.008-115.019
	C-1411.298,234.001-1395.157,223.368-1381.396,209.602 M-1484.021,95.817c6.165,0,11.164,4.999,11.164,11.164
	s-4.999,11.164-11.164,11.164s-11.163-4.999-11.163-11.164S-1490.186,95.817-1484.021,95.817 M-1520.752,224.001l25.669-73.801
	c3.543,0.903,7.233,1.437,11.062,1.437c3.827,0,7.521-0.533,11.063-1.437l25.669,73.801
	C-1471.12,231.452-1496.92,231.452-1520.752,224.001"/>
<g>
	<path fill="#028571" d="M-1878.667,40h-10.666h-117.334v320h213.334V136v-10.667L-1878.667,40z M-1804,349.333h-192V50.667h106.667
		V136H-1804V349.333z"/>
	<rect x="-1964" y="168" fill="#028571" width="128" height="10.667"/>
	<rect x="-1964" y="189.334" fill="#028571" width="128" height="10.666"/>
	<rect x="-1932" y="210.666" fill="#028571" width="64" height="10.668"/>
</g>
<g>
	<path fill="#028571" d="M-937.5,77.494C-960.656,54.328-992.656,40-1028,40s-67.344,14.328-90.5,37.494
		c-23.166,23.161-37.5,55.161-37.5,90.506c0,11.102,1.416,21.869,4.076,32.143c-1.35-0.086-2.707-0.143-4.076-0.143
		c-17.668,0-33.668,7.166-45.25,18.75c-11.584,11.578-18.75,27.578-18.75,45.25c0,18.708,7.166,35.656,18.75,47.917L-1156,360v-32
		c17.666,0,33.666-7.167,45.25-18.75c8.443-8.44,14.525-19.234,17.209-31.308C-1074.369,289.401-1051.959,296-1028,296v64
		l90.5-96.172C-914.332,239.307-900,205.422-900,168C-900,132.655-914.332,100.655-937.5,77.494 M-945.268,256.518l-72.066,76.582
		V296v-10.667H-1028c-23.104,0-45.172-6.653-64.057-19.018c0.025-0.769,0.057-1.539,0.057-2.315c0-17.672-7.166-33.672-18.75-45.25
		c-8.047-8.047-18.229-13.956-29.619-16.818c-3.266-10.864-4.965-22.266-4.965-33.932c0-31.34,12.209-60.801,34.379-82.966
		c22.152-22.163,51.613-34.367,82.955-34.367s60.803,12.204,82.959,34.37c22.17,22.162,34.375,51.623,34.375,82.963
		C-910.666,201.463-922.949,232.896-945.268,256.518"/>
	<path fill="#028571" d="M-1028,151.999c-8.836,0-16,7.162-16,16.001c0,8.838,7.164,16,16,16s16-7.162,16-16
		C-1012,159.161-1019.164,151.999-1028,151.999"/>
	<path fill="#028571" d="M-974.666,151.999c-8.836,0-16,7.162-16,16.001c0,8.838,7.164,16,16,16s16-7.162,16-16
		C-958.666,159.161-965.83,151.999-974.666,151.999"/>
	<path fill="#028571" d="M-1081.334,151.999c-8.832,0-16,7.162-16,16.001c0,8.838,7.168,16,16,16c8.834,0,16-7.162,16-16
		C-1065.334,159.161-1072.5,151.999-1081.334,151.999"/>
</g>
<g>
	<path fill="#028571" d="M-800,93.333v21.333h21.333v192.001h128V114.666h128v192.001h21.334V114.666H-480V93.333H-800z
		 M-661.333,296H-768V194.666h106.667V296z M-661.333,184H-768v-58.672h106.667V184z"/>
	<path fill="#028571" d="M-713.333,166.666c5.896,0,10.666-4.775,10.666-10.666s-4.771-10.667-10.666-10.667
		c-5.896,0-10.667,4.776-10.667,10.667S-719.229,166.666-713.333,166.666"/>
</g>
<g>
	<path fill="#333333" d="M-220,98.12c-64.359,0-116.535,100.984-116.535,165.344C-336.535,327.824-284.359,380-220,380
		s116.531-52.176,116.531-116.536C-103.469,199.104-155.641,98.12-220,98.12z M-220,368.229
		c-57.582,0-104.268-46.678-104.268-104.268c0-57.584,46.684-154.072,104.268-154.072s104.268,96.486,104.268,154.072
		C-115.732,321.551-162.414,368.229-220,368.229z"/>
	<path fill="#333333" d="M-338.891,134.364c-1.135,0-2.266-0.378-3.021-0.755l-29.439-16.983c-3.02-1.51-3.773-5.286-2.264-8.304
		c1.887-3.019,5.66-4.152,8.301-2.265l29.443,16.985c3.02,1.51,3.771,5.283,2.264,8.304
		C-334.363,133.232-336.627,134.364-338.891,134.364z"/>
	<path fill="#333333" d="M-285.674,83.787c3.018-1.51,3.775-5.285,2.264-8.304l-16.982-29.818c-1.512-3.019-5.287-3.773-8.307-2.263
		s-3.775,5.285-2.264,8.304l16.984,29.44c1.131,1.888,3.02,3.02,5.285,3.02C-287.561,84.542-286.428,84.164-285.674,83.787z"/>
	<path fill="#333333" d="M-213.959,60.007V26.041c0-3.399-2.645-6.041-6.039-6.041c-3.396,0-6.039,2.643-6.039,6.041v33.967
		c0,3.397,2.643,6.041,6.039,6.041C-216.604,66.048-213.959,63.406-213.959,60.007z"/>
	<path fill="#333333" d="M-146.4,81.522l16.984-29.44c1.512-3.019,0.756-6.793-2.264-8.302c-3.02-1.51-6.795-0.755-8.305,2.263
		l-16.984,29.44c-1.887,2.642-0.754,6.416,2.264,8.304c1.133,0.378,1.889,0.755,3.02,0.755
		C-149.42,84.542-147.531,83.408-146.4,81.522z"/>
	<path fill="#333333" d="M-98.09,133.609l29.441-16.983c3.018-1.51,3.775-5.286,2.262-8.304c-1.506-3.019-5.279-3.775-8.301-2.265
		l-29.441,16.985c-3.016,1.51-3.771,5.283-2.266,8.304c1.135,1.889,3.021,3.019,5.287,3.019
		C-100.354,134.364-99.221,134.364-98.09,133.609z"/>
	<g>
		<polyline fill="none" stroke="#333333" stroke-width="6" stroke-miterlimit="10" points="-325.492,246.502 -295.357,282.892 
			-265.219,246.502 -235.088,282.892 -204.945,246.502 -174.803,282.892 -144.656,246.502 -114.51,282.892 		"/>
	</g>
</g>
<g>
	<path fill="#333333" d="M204.328,98.121c-64.359,0-116.535,100.984-116.535,165.344C87.793,327.824,139.969,380,204.328,380
		s116.531-52.176,116.531-116.535C320.859,199.105,268.688,98.121,204.328,98.121z M204.328,356.748c-52.465,0-95-42.529-95-95
		c0-52.467,42.534-140.378,95-140.378s95,87.91,95,140.378C299.328,314.219,256.796,356.748,204.328,356.748z"/>
	<path fill="#333333" d="M85.438,134.365c-1.135,0-2.266-0.378-3.021-0.755l-29.439-16.983c-3.02-1.51-3.773-5.286-2.264-8.304
		c1.887-3.019,5.66-4.152,8.301-2.265l29.443,16.985c3.02,1.51,3.771,5.283,2.264,8.304
		C89.965,133.233,87.701,134.365,85.438,134.365z"/>
	<path fill="#333333" d="M138.654,83.788c3.018-1.51,3.775-5.285,2.264-8.304l-16.982-29.818c-1.512-3.019-5.287-3.773-8.307-2.263
		s-3.775,5.285-2.264,8.304l16.984,29.44c1.131,1.888,3.02,3.02,5.285,3.02C136.768,84.542,137.9,84.164,138.654,83.788z"/>
	<path fill="#333333" d="M210.369,60.008V26.041c0-3.399-2.645-6.041-6.039-6.041c-3.396,0-6.039,2.643-6.039,6.041v33.967
		c0,3.397,2.643,6.041,6.039,6.041C207.725,66.048,210.369,63.407,210.369,60.008z"/>
	<path fill="#333333" d="M277.928,81.523l16.984-29.44c1.512-3.019,0.756-6.793-2.264-8.302c-3.02-1.51-6.795-0.755-8.305,2.263
		l-16.984,29.44c-1.887,2.642-0.754,6.416,2.264,8.304c1.133,0.378,1.889,0.755,3.02,0.755
		C274.908,84.542,276.797,83.409,277.928,81.523z"/>
	<path fill="#333333" d="M326.238,133.61l29.441-16.983c3.018-1.51,3.775-5.286,2.262-8.304c-1.506-3.019-5.279-3.775-8.301-2.265
		l-29.441,16.985c-3.016,1.51-3.771,5.283-2.266,8.304c1.135,1.889,3.021,3.019,5.287,3.019
		C323.975,134.365,325.107,134.365,326.238,133.61z"/>
	<g>
		<polyline fill="none" stroke="#333333" stroke-width="20" stroke-miterlimit="10" points="98.836,246.502 128.971,282.893 
			159.109,246.502 189.24,282.893 219.383,246.502 249.525,282.893 279.672,246.502 309.818,282.893 		"/>
	</g>
</g>
</svg>
