<?xml version="1.0" encoding="utf-8"?>
<!-- Generator: Adobe Illustrator 16.0.0, SVG Export Plug-In . SVG Version: 6.00 Build 0)  -->
<!DOCTYPE svg PUBLIC "-//W3C//DTD SVG 1.1//EN" "http://www.w3.org/Graphics/SVG/1.1/DTD/svg11.dtd">
<svg version="1.1" id="Layer_1" xmlns="http://www.w3.org/2000/svg" xmlns:xlink="http://www.w3.org/1999/xlink" x="0px" y="0px"
	 width="400px" height="400px" viewBox="0 0 400 400" enable-background="new 0 0 400 400" xml:space="preserve">
<g>
	<g>
		<g>
			<g>
				<path fill="#1C75BC" d="M-2869.803,297.109c-1.065,0-2.103-0.544-2.688-1.528c-1.212-2.037-1.853-4.372-1.853-6.753V101.35
					c0-7.288,5.928-13.216,13.216-13.216h284.25c7.287,0,13.216,5.928,13.216,13.216v187.478c0,2.354-0.629,4.669-1.819,6.693
					c-0.875,1.488-2.787,1.984-4.278,1.109c-1.487-0.875-1.984-2.79-1.109-4.277c0.625-1.062,0.957-2.281,0.957-3.525V101.35
					c0-3.841-3.125-6.966-6.966-6.966h-284.247c-3.841,0-6.966,3.125-6.966,6.966v187.478c0,1.256,0.338,2.484,0.975,3.557
					c0.881,1.484,0.394,3.399-1.087,4.284C-2868.709,296.966-2869.259,297.109-2869.803,297.109z"/>
			</g>
			<g>
				<path fill="#1C75BC" d="M-2583.662,280.575h-271.182c-0.862,0-1.562-0.7-1.562-1.562V107.138c0-0.863,0.7-1.562,1.562-1.562
					h271.182c0.862,0,1.562,0.7,1.562,1.562v171.875C-2582.1,279.875-2582.8,280.575-2583.662,280.575z M-2853.281,277.45h268.057
					V108.7h-268.057V277.45z"/>
			</g>
		</g>
		<g>
			<g>
				<g>
					<path fill="#1C75BC" d="M-2551.662,313.865h-335.351c-15.472,0-21.284-6.462-21.894-7.199c-0.466-0.562-0.719-1.27-0.719-1.997
						v-9.716c0-1.725,1.4-3.125,3.125-3.125s3.125,1.4,3.125,3.125v8.35c1.712,1.332,6.628,4.312,16.366,4.312h335.35
						c9.759,0,15.075-2.959,17.037-4.353v-6.672c0-1.726,1.4-3.125,3.125-3.125c1.726,0,3.125,1.399,3.125,3.125v8.144
						c0,0.8-0.31,1.572-0.859,2.153C-2529.51,307.175-2536.053,313.865-2551.662,313.865z"/>
				</g>
				<g>
					<path fill="#1C75BC" d="M-2906.5,304.669c-1.725,0-3.125-1.4-3.125-3.125v-6.856c0-1.947,1.584-3.528,3.528-3.528h374.193
						c1.947,0,3.528,1.581,3.528,3.528v5.49c0,1.726-1.4,3.125-3.125,3.125s-3.125-1.399-3.125-3.125v-2.769h-368.75v4.132
						C-2903.375,303.269-2904.775,304.669-2906.5,304.669z"/>
				</g>
				<g>
					<path fill="#1C75BC" d="M-2699.219,301.503h-40.95c-3.344,0-8.228-1.696-8.597-5.334c-0.016-0.085-0.022-0.172-0.022-0.26
						v-0.253c0-0.862,0.7-1.562,1.562-1.562c0.863,0,1.562,0.7,1.562,1.562c0,1.472,3.072,2.722,5.494,2.722h40.95
						c1.425,0,4.275-1.209,4.428-2.865c0.082-0.859,0.848-1.497,1.7-1.413c0.859,0.082,1.491,0.844,1.413,1.7
						C-2692.031,299.6-2696.703,301.503-2699.219,301.503z"/>
				</g>
			</g>
		</g>
	</g>
</g>
<path fill="#1C75BC" d="M-2931.143,193.075c0-2.459-0.248-4.853-0.621-7.209l14.621-12.791l-12.422-20.391l-17.438,5.696
	c-4.168-3.625-8.992-6.492-14.275-8.438l-3.865-16.867h-24l-3.865,16.867c-5.283,1.946-10.11,4.813-14.28,8.44l-17.435-5.7
	l-12.42,20.393l14.619,12.795c-0.371,2.353-0.619,4.748-0.619,7.205c0,2.459,0.248,4.854,0.619,7.207l-14.619,12.793l12.424,20.391
	l17.431-5.696c4.17,3.626,8.997,6.493,14.28,8.438l3.865,16.867h24l3.865-16.867c5.283-1.945,10.107-4.812,14.275-8.438
	l17.436,5.697l12.424-20.393l-14.621-12.789C-2931.391,197.931-2931.143,195.534-2931.143,193.075 M-2922.311,213.869l-9.024,14.812
	l-14.425-4.714l-2.156-0.704l-1.711,1.488c-3.842,3.341-8.226,5.934-13.032,7.702l-2.033,0.749l-0.484,2.111l-3.152,13.761h-17.626
	l-3.153-13.761l-0.484-2.111l-2.033-0.749c-4.809-1.771-9.195-4.362-13.037-7.704l-1.711-1.488l-2.156,0.704l-14.421,4.714
	l-9.025-14.811l12.086-10.577l1.661-1.453l-0.344-2.18c-0.383-2.434-0.57-4.587-0.57-6.584c0-1.995,0.187-4.148,0.57-6.582
	l0.344-2.18l-1.661-1.453l-12.086-10.578l9.022-14.813l14.424,4.715l2.156,0.705l1.711-1.489c3.842-3.342,8.228-5.933,13.037-7.704
	l2.033-0.749l0.484-2.111l3.153-13.761h17.626l3.152,13.761l0.484,2.111l2.033,0.749c4.807,1.77,9.19,4.361,13.032,7.702
	l1.711,1.488l2.155-0.704l14.428-4.712l9.023,14.811l-12.088,10.574l-1.662,1.455l0.345,2.182c0.386,2.429,0.572,4.583,0.572,6.583
	c0,2.002-0.187,4.156-0.572,6.586l-0.345,2.181l1.662,1.455L-2922.311,213.869z"/>
<path fill="#1C75BC" d="M-2977.143,169.075c-13.258,0-24,10.738-24,24c0,13.262,10.742,24,24,24c13.262,0,24-10.738,24-24
	C-2953.143,179.813-2963.881,169.075-2977.143,169.075 M-2977.143,201.075c-4.414,0-8-3.582-8-8s3.586-8,8-8s8,3.582,8,8
	S-2972.729,201.075-2977.143,201.075"/>
<path fill="#1C75BC" d="M-2415.873,148c-8,0-16,4-20,8c-4-4-12-8-20-8h-32v96h32c8,0,16,4,20,8c4-4,12-8,20-8h32v-96H-2415.873z
	 M-2435.873,246.769c-4.871-3.58-12.316-6.769-20-6.769h-28v-88h28c6.79,0,13.777,3.435,17.172,6.829l2.828,2.828V246.769z
	 M-2395.873,216h-28v-4h28V216z M-2395.873,204h-28v-4h28V204z M-2395.873,192h-28v-4h28V192z M-2395.873,180h-28v-4h28V180z"/>
<path fill="#1C75BC" d="M-2674.062,154.061c-8.684-8.687-20.684-14.06-33.938-14.06c-13.253,0-25.253,5.373-33.938,14.06
	c-8.687,8.686-14.062,20.686-14.062,33.94c0,4.163,0.531,8.201,1.528,12.053c-0.506-0.032-1.015-0.054-1.528-0.054
	c-6.625,0-12.625,2.688-16.969,7.031c-4.344,4.342-7.031,10.342-7.031,16.969c0,7.016,2.687,13.371,7.031,17.969L-2756,260v-12
	c6.625,0,12.625-2.688,16.968-7.031c3.166-3.165,5.447-7.213,6.454-11.74c7.189,4.297,15.593,6.771,24.578,6.771v24l33.938-36.064
	C-2665.375,214.74-2660,202.033-2660,188C-2660,174.746-2665.375,162.746-2674.062,154.061 M-2676.976,221.194L-2704,249.912V236v-4
	h-4c-8.664,0-16.939-2.495-24.021-7.132c0.01-0.288,0.022-0.577,0.022-0.868c0-6.627-2.688-12.627-7.032-16.969
	c-3.017-3.018-6.836-5.233-11.107-6.307c-1.225-4.074-1.861-8.35-1.861-12.724c0-11.752,4.578-22.8,12.891-31.112
	c8.308-8.311,19.355-12.888,31.108-12.888s22.801,4.577,31.109,12.889C-2668.577,165.2-2664,176.249-2664,188
	C-2664,200.549-2668.606,212.336-2676.976,221.194"/>
<path fill="#1C75BC" d="M-2708,182c-3.313,0-6,2.686-6,6s2.687,6,6,6s6-2.686,6-6S-2704.687,182-2708,182"/>
<path fill="#1C75BC" d="M-2688,182c-3.313,0-6,2.686-6,6s2.687,6,6,6s6-2.686,6-6S-2684.687,182-2688,182"/>
<path fill="#1C75BC" d="M-2728,182c-3.313,0-6,2.686-6,6s2.687,6,6,6s6-2.686,6-6S-2724.687,182-2728,182"/>
<path fill="#1C75BC" d="M-2531.587,27.396v16v80h120v-80v-16H-2531.587z M-2415.587,119.396h-112v-22h112V119.396z
	 M-2415.587,93.396h-112v-20h112V93.396z M-2415.587,69.396h-112v-22h112V69.396z"/>
<path fill="#028571" d="M-1916.856,117.317c0-3.785-0.382-7.469-0.956-11.096l22.504-19.687l-19.119-31.384l-26.838,8.767
	c-6.415-5.579-13.84-9.991-21.971-12.987l-5.949-25.959h-36.938l-5.948,25.959c-8.132,2.996-15.562,7.408-21.979,12.991
	l-26.834-8.773L-2080,86.535l22.5,19.693c-0.571,3.621-0.953,7.308-0.953,11.089c0,3.784,0.382,7.47,0.953,11.092l-22.5,19.689
	l19.121,31.383l26.828-8.767c6.417,5.581,13.847,9.994,21.979,12.988l5.948,25.96h36.938l5.949-25.96
	c8.131-2.994,15.556-7.407,21.971-12.986l26.835,8.769l19.122-31.386l-22.504-19.684
	C-1917.238,124.79-1916.856,121.102-1916.856,117.317 M-1903.263,149.321l-13.892,22.798l-22.199-7.255l-3.318-1.084l-2.634,2.291
	c-5.913,5.142-12.661,9.132-20.06,11.854l-3.129,1.153l-0.745,3.25l-4.853,21.179h-27.128l-4.853-21.179l-0.746-3.25l-3.128-1.153
	c-7.402-2.727-14.152-6.714-20.064-11.857l-2.634-2.291l-3.318,1.084l-22.195,7.255l-13.891-22.795l18.602-16.279l2.558-2.237
	l-0.53-3.354c-0.59-3.746-0.876-7.06-0.876-10.133c0-3.071,0.286-6.383,0.876-10.13l0.53-3.356l-2.558-2.236l-18.602-16.279
	l13.886-22.798l22.2,7.256l3.318,1.085l2.634-2.292c5.912-5.143,12.662-9.131,20.064-11.856l3.128-1.153l0.746-3.25l4.853-21.179
	h27.128l4.853,21.179l0.745,3.25l3.129,1.153c7.398,2.724,14.146,6.712,20.06,11.854l2.634,2.291l3.315-1.083l22.205-7.252
	l13.889,22.795l-18.604,16.274l-2.559,2.24l0.532,3.358c0.592,3.738,0.881,7.054,0.881,10.132c0,3.081-0.289,6.396-0.881,10.136
	l-0.532,3.356l2.559,2.24L-1903.263,149.321z"/>
<path fill="#028571" d="M-1987.654,80.379c-20.405,0-36.938,16.526-36.938,36.938c0,20.411,16.533,36.938,36.938,36.938
	c20.411,0,36.938-16.527,36.938-36.938C-1950.717,96.905-1967.243,80.379-1987.654,80.379 M-1987.654,129.63
	c-6.794,0-12.312-5.513-12.312-12.312c0-6.8,5.519-12.313,12.312-12.313c6.793,0,12.312,5.513,12.312,12.313
	C-1975.342,124.117-1980.861,129.63-1987.654,129.63"/>
<path fill="#028571" d="M-1861.449,282.684c0-3.784-0.382-7.467-0.956-11.095l22.504-19.687l-19.119-31.384l-26.838,8.766
	c-6.415-5.579-13.84-9.988-21.971-12.985l-5.949-25.96h-36.938l-5.948,25.96c-8.132,2.997-15.561,7.406-21.979,12.992l-26.834-8.775
	l-19.115,31.387l22.5,19.692c-0.571,3.622-0.953,7.308-0.953,11.089c0,3.785,0.382,7.471,0.953,11.093l-22.5,19.689l19.121,31.383
	l26.828-8.766c6.418,5.579,13.847,9.992,21.979,12.986l5.948,25.96h36.938l5.949-25.96c8.131-2.994,15.556-7.407,21.971-12.986
	l26.835,8.769l19.122-31.386l-22.504-19.684C-1861.831,290.157-1861.449,286.469-1861.449,282.684 M-1847.855,314.689
	l-13.892,22.798l-22.199-7.257l-3.318-1.082l-2.634,2.29c-5.913,5.141-12.661,9.133-20.059,11.854l-3.13,1.154l-0.745,3.249
	l-4.852,21.178h-27.129l-4.853-21.178l-0.746-3.249l-3.127-1.154c-7.402-2.727-14.153-6.713-20.065-11.856l-2.634-2.29l-3.318,1.082
	l-22.195,7.256l-13.891-22.794l18.602-16.281l2.558-2.236l-0.53-3.354c-0.589-3.746-0.876-7.059-0.876-10.134
	c0-3.069,0.287-6.382,0.876-10.13l0.53-3.354l-2.558-2.237l-18.602-16.28l13.886-22.798l22.2,7.257l3.318,1.085l2.634-2.291
	c5.912-5.143,12.663-9.132,20.065-11.858l3.127-1.151l0.746-3.25l4.853-21.18h27.129l4.852,21.18l0.745,3.25l3.13,1.151
	c7.397,2.727,14.146,6.713,20.059,11.855l2.634,2.291l3.315-1.085l22.205-7.251l13.889,22.795l-18.604,16.274l-2.559,2.239
	l0.532,3.358c0.592,3.736,0.881,7.052,0.881,10.13c0,3.081-0.289,6.397-0.881,10.137l-0.532,3.357l2.559,2.239L-1847.855,314.689z"
	/>
<path fill="#028571" d="M-1932.247,245.746c-20.405,0-36.938,16.526-36.938,36.938s16.533,36.938,36.938,36.938
	c20.411,0,36.938-16.527,36.938-36.938S-1911.836,245.746-1932.247,245.746 M-1932.247,294.996c-6.794,0-12.312-5.513-12.312-12.312
	s5.519-12.312,12.312-12.312s12.312,5.513,12.312,12.312S-1925.453,294.996-1932.247,294.996"/>
<path fill="#028571" d="M-1741.547,154.255c0-3.785-0.382-7.468-0.956-11.095l22.503-19.687l-19.118-31.385l-26.838,8.767
	c-6.415-5.579-13.84-9.99-21.972-12.987l-5.948-25.958h-36.938l-5.949,25.958c-8.131,2.997-15.561,7.408-21.979,12.992
	l-26.833-8.775l-19.116,31.388l22.501,19.692c-0.571,3.621-0.953,7.308-0.953,11.089c0,3.785,0.382,7.47,0.953,11.092
	l-22.501,19.689l19.122,31.385l26.827-8.769c6.418,5.582,13.848,9.995,21.979,12.989l5.949,25.96h36.938l5.948-25.96
	c8.132-2.994,15.557-7.407,21.972-12.988l26.835,8.771l19.121-31.388l-22.503-19.684
	C-1741.929,161.729-1741.547,158.04-1741.547,154.255 M-1727.954,186.259l-13.891,22.797l-22.2-7.255l-3.318-1.083l-2.633,2.291
	c-5.913,5.142-12.662,9.133-20.06,11.855l-3.129,1.151l-0.746,3.25l-4.852,21.181h-27.128l-4.854-21.181l-0.745-3.25l-3.128-1.151
	c-7.402-2.727-14.152-6.715-20.065-11.858l-2.633-2.291l-3.319,1.083l-22.194,7.255l-13.892-22.794l18.602-16.279l2.559-2.236
	l-0.531-3.355c-0.589-3.746-0.876-7.06-0.876-10.133c0-3.071,0.287-6.383,0.876-10.13l0.531-3.356l-2.559-2.236l-18.602-16.279
	l13.887-22.799l22.199,7.257l3.319,1.085l2.633-2.291c5.913-5.143,12.663-9.132,20.065-11.857l3.128-1.153l0.745-3.25l4.854-21.179
	h27.128l4.852,21.179l0.746,3.25l3.129,1.153c7.397,2.725,14.146,6.711,20.06,11.854l2.633,2.291l3.315-1.085l22.206-7.25
	l13.888,22.794l-18.604,16.275l-2.558,2.239l0.532,3.358c0.592,3.738,0.88,7.054,0.88,10.132c0,3.081-0.288,6.397-0.88,10.136
	l-0.532,3.356l2.558,2.239L-1727.954,186.259z"/>
<path fill="#028571" d="M-1812.346,117.317c-20.404,0-36.938,16.525-36.938,36.938c0,20.411,16.533,36.938,36.938,36.938
	c20.411,0,36.938-16.527,36.938-36.938C-1775.407,133.843-1791.935,117.317-1812.346,117.317 M-1812.346,166.568
	c-6.793,0-12.312-5.513-12.312-12.313s5.52-12.312,12.312-12.312c6.794,0,12.312,5.513,12.312,12.312
	S-1805.552,166.568-1812.346,166.568"/>
<path fill="#028571" d="M-961.396,209.602l-15.792-15.785c-11.36,11.364-24.658,20.214-39.602,26.388l-25.76-74.07
	c13.813-7.595,23.184-22.274,23.184-39.152c0-20.797-14.241-38.224-33.491-43.191V39.999h-22.327V63.79
	c-19.251,4.968-33.491,22.395-33.491,43.191c0,16.878,9.37,31.558,23.186,39.152l-73.115,210.198l10.548,3.669l39.968-114.913
	c14.284,4.544,29.171,6.844,44.068,6.844c14.896,0,29.788-2.303,44.069-6.844l39.967,114.913l10.548-3.669l-40.008-115.019
	C-991.298,234.001-975.157,223.368-961.396,209.602 M-1064.021,95.817c6.165,0,11.164,4.999,11.164,11.164
	s-4.999,11.164-11.164,11.164s-11.163-4.999-11.163-11.164S-1070.186,95.817-1064.021,95.817 M-1100.752,224.001l25.669-73.801
	c3.543,0.903,7.233,1.437,11.062,1.437c3.827,0,7.521-0.533,11.063-1.437l25.669,73.801
	C-1051.12,231.452-1076.92,231.452-1100.752,224.001"/>
<g>
	<path fill="#028571" d="M-1458.667,40h-10.666h-117.334v320h213.334V136v-10.667L-1458.667,40z M-1384,349.333h-192V50.667h106.667
		V136H-1384V349.333z"/>
	<rect x="-1544" y="168" fill="#028571" width="128" height="10.667"/>
	<rect x="-1544" y="189.334" fill="#028571" width="128" height="10.666"/>
	<rect x="-1512" y="210.666" fill="#028571" width="64" height="10.668"/>
</g>
<g>
	<path fill="#028571" d="M-517.5,77.494C-540.656,54.328-572.656,40-608,40s-67.344,14.328-90.5,37.494
		C-721.666,100.655-736,132.655-736,168c0,11.102,1.416,21.869,4.076,32.143c-1.35-0.086-2.707-0.143-4.076-0.143
		c-17.668,0-33.668,7.166-45.25,18.75C-792.834,230.328-800,246.328-800,264c0,18.708,7.166,35.656,18.75,47.917L-736,360v-32
		c17.666,0,33.666-7.167,45.25-18.75c8.443-8.44,14.525-19.234,17.209-31.308C-654.369,289.401-631.959,296-608,296v64l90.5-96.172
		C-494.332,239.307-480,205.422-480,168C-480,132.655-494.332,100.655-517.5,77.494 M-525.268,256.518l-72.066,76.582V296v-10.667
		H-608c-23.104,0-45.172-6.653-64.057-19.018c0.025-0.769,0.057-1.539,0.057-2.315c0-17.672-7.166-33.672-18.75-45.25
		c-8.047-8.047-18.229-13.956-29.619-16.818c-3.266-10.864-4.965-22.266-4.965-33.932c0-31.34,12.209-60.801,34.379-82.966
		c22.152-22.163,51.613-34.367,82.955-34.367s60.803,12.204,82.959,34.37c22.17,22.162,34.375,51.623,34.375,82.963
		C-490.666,201.463-502.949,232.896-525.268,256.518"/>
	<path fill="#028571" d="M-608,151.999c-8.836,0-16,7.162-16,16.001c0,8.838,7.164,16,16,16s16-7.162,16-16
		C-592,159.161-599.164,151.999-608,151.999"/>
	<path fill="#028571" d="M-554.666,151.999c-8.836,0-16,7.162-16,16.001c0,8.838,7.164,16,16,16s16-7.162,16-16
		C-538.666,159.161-545.83,151.999-554.666,151.999"/>
	<path fill="#028571" d="M-661.334,151.999c-8.832,0-16,7.162-16,16.001c0,8.838,7.168,16,16,16c8.834,0,16-7.162,16-16
		C-645.334,159.161-652.5,151.999-661.334,151.999"/>
</g>
<g>
	<path fill="#028571" d="M-380,93.333v21.333h21.333v192.001h128V114.666h128v192.001h21.334V114.666H-60V93.333H-380z
		 M-241.333,296H-348V194.666h106.667V296z M-241.333,184H-348v-58.672h106.667V184z"/>
	<path fill="#028571" d="M-293.333,166.666c5.896,0,10.666-4.775,10.666-10.666s-4.771-10.667-10.666-10.667
		c-5.896,0-10.667,4.776-10.667,10.667S-299.229,166.666-293.333,166.666"/>
</g>
<g>
	<path fill="#333333" d="M200,98.12c-64.359,0-116.535,100.984-116.535,165.344C83.465,327.824,135.641,380,200,380
		s116.531-52.176,116.531-116.536C316.531,199.104,264.359,98.12,200,98.12z M200,368.229c-57.582,0-104.268-46.678-104.268-104.268
		c0-57.584,46.684-154.072,104.268-154.072s104.268,96.486,104.268,154.072C304.268,321.551,257.586,368.229,200,368.229z"/>
	<path fill="#333333" d="M81.109,134.364c-1.135,0-2.266-0.378-3.021-0.755l-29.439-16.983c-3.02-1.51-3.773-5.286-2.264-8.304
		c1.887-3.019,5.66-4.152,8.301-2.265l29.443,16.985c3.02,1.51,3.771,5.283,2.264,8.304
		C85.637,133.232,83.373,134.364,81.109,134.364z"/>
	<path fill="#333333" d="M134.326,83.787c3.018-1.51,3.775-5.285,2.264-8.304l-16.982-29.818c-1.512-3.019-5.287-3.773-8.307-2.263
		s-3.775,5.285-2.264,8.304l16.984,29.44c1.131,1.888,3.02,3.02,5.285,3.02C132.439,84.542,133.572,84.164,134.326,83.787z"/>
	<path fill="#333333" d="M206.041,60.007V26.041c0-3.399-2.645-6.041-6.039-6.041c-3.396,0-6.039,2.643-6.039,6.041v33.967
		c0,3.397,2.643,6.041,6.039,6.041C203.396,66.048,206.041,63.406,206.041,60.007z"/>
	<path fill="#333333" d="M273.6,81.522l16.984-29.44c1.512-3.019,0.756-6.793-2.264-8.302c-3.02-1.51-6.795-0.755-8.305,2.263
		l-16.984,29.44c-1.887,2.642-0.754,6.416,2.264,8.304c1.133,0.378,1.889,0.755,3.02,0.755
		C270.58,84.542,272.469,83.408,273.6,81.522z"/>
	<path fill="#333333" d="M321.91,133.609l29.441-16.983c3.018-1.51,3.775-5.286,2.262-8.304c-1.506-3.019-5.279-3.775-8.301-2.265
		l-29.441,16.985c-3.016,1.51-3.771,5.283-2.266,8.304c1.135,1.889,3.021,3.019,5.287,3.019
		C319.646,134.364,320.779,134.364,321.91,133.609z"/>
	<g>
		<polyline fill="none" stroke="#333333" stroke-width="6" stroke-miterlimit="10" points="94.508,246.502 124.643,282.892 
			154.781,246.502 184.912,282.892 215.055,246.502 245.197,282.892 275.344,246.502 305.49,282.892 		"/>
	</g>
</g>
<g>
	<path fill="#333333" d="M624.328,98.121c-64.359,0-116.535,100.984-116.535,165.344c0,64.359,52.176,116.535,116.535,116.535
		s116.531-52.176,116.531-116.535C740.859,199.105,688.688,98.121,624.328,98.121z M624.328,356.748c-52.465,0-95-42.529-95-95
		c0-52.467,42.534-140.378,95-140.378s95,87.91,95,140.378C719.328,314.219,676.796,356.748,624.328,356.748z"/>
	<path fill="#333333" d="M505.438,134.365c-1.135,0-2.266-0.378-3.021-0.755l-29.439-16.983c-3.02-1.51-3.773-5.286-2.264-8.304
		c1.887-3.019,5.66-4.152,8.301-2.265l29.443,16.985c3.02,1.51,3.771,5.283,2.264,8.304
		C509.965,133.233,507.701,134.365,505.438,134.365z"/>
	<path fill="#333333" d="M558.654,83.788c3.018-1.51,3.775-5.285,2.264-8.304l-16.982-29.818c-1.512-3.019-5.287-3.773-8.307-2.263
		s-3.775,5.285-2.264,8.304l16.984,29.44c1.131,1.888,3.02,3.02,5.285,3.02C556.768,84.542,557.9,84.164,558.654,83.788z"/>
	<path fill="#333333" d="M630.369,60.008V26.041c0-3.399-2.645-6.041-6.039-6.041c-3.396,0-6.039,2.643-6.039,6.041v33.967
		c0,3.397,2.643,6.041,6.039,6.041C627.725,66.048,630.369,63.407,630.369,60.008z"/>
	<path fill="#333333" d="M697.928,81.523l16.984-29.44c1.512-3.019,0.756-6.793-2.264-8.302c-3.02-1.51-6.795-0.755-8.305,2.263
		l-16.984,29.44c-1.887,2.642-0.754,6.416,2.264,8.304c1.133,0.378,1.889,0.755,3.02,0.755
		C694.908,84.542,696.797,83.409,697.928,81.523z"/>
	<path fill="#333333" d="M746.238,133.61l29.441-16.983c3.018-1.51,3.775-5.286,2.262-8.304c-1.506-3.019-5.279-3.775-8.301-2.265
		l-29.441,16.985c-3.016,1.51-3.771,5.283-2.266,8.304c1.135,1.889,3.021,3.019,5.287,3.019
		C743.975,134.365,745.107,134.365,746.238,133.61z"/>
	<g>
		<polyline fill="none" stroke="#333333" stroke-width="20" stroke-miterlimit="10" points="518.836,246.502 548.971,282.893 
			579.109,246.502 609.24,282.893 639.383,246.502 669.525,282.893 699.672,246.502 729.818,282.893 		"/>
	</g>
</g>
<path fill-rule="evenodd" clip-rule="evenodd" fill="#191717" d="M1039.99,43.95c-88.352,0-159.985,71.633-159.985,160.005
	c0,70.693,45.831,130.663,109.426,151.822c8,1.458,10.916-3.472,10.916-7.712c0-3.798-0.135-13.87-0.211-27.222
	c-44.507,9.669-53.907-21.448-53.907-21.448c-7.271-18.475-17.765-23.404-17.765-23.404c-14.522-9.918,1.103-9.727,1.103-9.727
	c16.058,1.132,24.508,16.498,24.508,16.498c14.273,24.441,37.447,17.381,46.561,13.295c1.457-10.34,5.592-17.4,10.167-21.391
	c-35.528-4.047-72.88-17.764-72.88-79.076c0-17.477,6.234-31.75,16.46-42.934c-1.641-4.049-7.137-20.316,1.573-42.35
	c0,0,13.428-4.307,43.998,16.402c12.768-3.549,26.445-5.323,40.057-5.381c13.592,0.058,27.27,1.832,40.057,5.381
	c30.551-20.709,43.96-16.402,43.96-16.402c8.729,22.033,3.232,38.301,1.593,42.35c10.244,11.184,16.44,25.457,16.44,42.934
	c0,61.466-37.409,74.99-73.054,78.942c5.746,4.949,10.858,14.714,10.858,29.64c0,21.39-0.191,38.637-0.191,43.893
	c0,4.278,2.878,9.247,11.002,7.693c63.528-21.199,109.32-81.13,109.32-151.804C1199.995,115.583,1128.361,43.95,1039.99,43.95z"/>
</svg>
