<?xml version="1.0" encoding="utf-8"?>
<!-- Generator: Adobe Illustrator 16.0.0, SVG Export Plug-In . SVG Version: 6.00 Build 0)  -->
<!DOCTYPE svg PUBLIC "-//W3C//DTD SVG 1.1//EN" "http://www.w3.org/Graphics/SVG/1.1/DTD/svg11.dtd">
<svg version="1.1" id="Layer_1" xmlns="http://www.w3.org/2000/svg" xmlns:xlink="http://www.w3.org/1999/xlink" x="0px" y="0px"
	 width="400px" height="400px" viewBox="0 0 400 400" enable-background="new 0 0 400 400" xml:space="preserve">
<g>
	<g>
		<g>
			<g>
				<path fill="#1C75BC" d="M-2449.803,297.109c-1.065,0-2.103-0.544-2.688-1.528c-1.212-2.037-1.853-4.372-1.853-6.753V101.35
					c0-7.288,5.928-13.216,13.216-13.216h284.25c7.287,0,13.216,5.928,13.216,13.216v187.478c0,2.354-0.629,4.669-1.819,6.693
					c-0.875,1.488-2.787,1.984-4.278,1.109c-1.487-0.875-1.984-2.79-1.109-4.277c0.625-1.062,0.957-2.281,0.957-3.525V101.35
					c0-3.841-3.125-6.966-6.966-6.966h-284.247c-3.841,0-6.966,3.125-6.966,6.966v187.478c0,1.256,0.338,2.484,0.975,3.557
					c0.881,1.484,0.394,3.399-1.087,4.284C-2448.709,296.966-2449.259,297.109-2449.803,297.109z"/>
			</g>
			<g>
				<path fill="#1C75BC" d="M-2163.662,280.575h-271.182c-0.862,0-1.562-0.7-1.562-1.562V107.138c0-0.863,0.7-1.562,1.562-1.562
					h271.182c0.862,0,1.562,0.7,1.562,1.562v171.875C-2162.1,279.875-2162.8,280.575-2163.662,280.575z M-2433.281,277.45h268.057
					V108.7h-268.057V277.45z"/>
			</g>
		</g>
		<g>
			<g>
				<g>
					<path fill="#1C75BC" d="M-2131.662,313.865h-335.351c-15.472,0-21.284-6.462-21.894-7.199c-0.466-0.562-0.719-1.27-0.719-1.997
						v-9.716c0-1.725,1.4-3.125,3.125-3.125s3.125,1.4,3.125,3.125v8.35c1.712,1.332,6.628,4.312,16.366,4.312h335.35
						c9.759,0,15.075-2.959,17.037-4.353v-6.672c0-1.726,1.4-3.125,3.125-3.125c1.726,0,3.125,1.399,3.125,3.125v8.144
						c0,0.8-0.31,1.572-0.859,2.153C-2109.51,307.175-2116.053,313.865-2131.662,313.865z"/>
				</g>
				<g>
					<path fill="#1C75BC" d="M-2486.5,304.669c-1.725,0-3.125-1.4-3.125-3.125v-6.856c0-1.947,1.584-3.528,3.528-3.528h374.193
						c1.947,0,3.528,1.581,3.528,3.528v5.49c0,1.726-1.4,3.125-3.125,3.125s-3.125-1.399-3.125-3.125v-2.769h-368.75v4.132
						C-2483.375,303.269-2484.775,304.669-2486.5,304.669z"/>
				</g>
				<g>
					<path fill="#1C75BC" d="M-2279.219,301.503h-40.95c-3.344,0-8.228-1.696-8.597-5.334c-0.016-0.085-0.022-0.172-0.022-0.26
						v-0.253c0-0.862,0.7-1.562,1.562-1.562c0.863,0,1.562,0.7,1.562,1.562c0,1.472,3.072,2.722,5.494,2.722h40.95
						c1.425,0,4.275-1.209,4.428-2.865c0.082-0.859,0.848-1.497,1.7-1.413c0.859,0.082,1.491,0.844,1.413,1.7
						C-2272.031,299.6-2276.703,301.503-2279.219,301.503z"/>
				</g>
			</g>
		</g>
	</g>
</g>
<path fill="#1C75BC" d="M-2511.143,193.075c0-2.459-0.248-4.853-0.621-7.209l14.621-12.791l-12.422-20.391l-17.438,5.696
	c-4.168-3.625-8.992-6.492-14.275-8.438l-3.865-16.867h-24l-3.865,16.867c-5.283,1.946-10.11,4.813-14.28,8.44l-17.435-5.7
	l-12.42,20.393l14.619,12.795c-0.371,2.353-0.619,4.748-0.619,7.205c0,2.459,0.248,4.854,0.619,7.207l-14.619,12.793l12.424,20.391
	l17.431-5.696c4.17,3.626,8.997,6.493,14.28,8.438l3.865,16.867h24l3.865-16.867c5.283-1.945,10.107-4.812,14.275-8.438
	l17.436,5.697l12.424-20.393l-14.621-12.789C-2511.391,197.931-2511.143,195.534-2511.143,193.075 M-2502.311,213.869l-9.024,14.812
	l-14.425-4.714l-2.156-0.704l-1.711,1.488c-3.842,3.341-8.226,5.934-13.032,7.702l-2.033,0.749l-0.484,2.111l-3.152,13.761h-17.626
	l-3.153-13.761l-0.484-2.111l-2.033-0.749c-4.809-1.771-9.195-4.362-13.037-7.704l-1.711-1.488l-2.156,0.704l-14.421,4.714
	l-9.025-14.811l12.086-10.577l1.661-1.453l-0.344-2.18c-0.383-2.434-0.57-4.587-0.57-6.584c0-1.995,0.187-4.148,0.57-6.582
	l0.344-2.18l-1.661-1.453l-12.086-10.578l9.022-14.813l14.424,4.715l2.156,0.705l1.711-1.489c3.842-3.342,8.228-5.933,13.037-7.704
	l2.033-0.749l0.484-2.111l3.153-13.761h17.626l3.152,13.761l0.484,2.111l2.033,0.749c4.807,1.77,9.19,4.361,13.032,7.702
	l1.711,1.488l2.155-0.704l14.428-4.712l9.023,14.811l-12.088,10.574l-1.662,1.455l0.345,2.182c0.386,2.429,0.572,4.583,0.572,6.583
	c0,2.002-0.187,4.156-0.572,6.586l-0.345,2.181l1.662,1.455L-2502.311,213.869z"/>
<path fill="#1C75BC" d="M-2557.143,169.075c-13.258,0-24,10.738-24,24c0,13.262,10.742,24,24,24c13.262,0,24-10.738,24-24
	C-2533.143,179.813-2543.881,169.075-2557.143,169.075 M-2557.143,201.075c-4.414,0-8-3.582-8-8s3.586-8,8-8s8,3.582,8,8
	S-2552.729,201.075-2557.143,201.075"/>
<path fill="#1C75BC" d="M-1995.873,148c-8,0-16,4-20,8c-4-4-12-8-20-8h-32v96h32c8,0,16,4,20,8c4-4,12-8,20-8h32v-96H-1995.873z
	 M-2015.873,246.769c-4.871-3.58-12.316-6.769-20-6.769h-28v-88h28c6.79,0,13.777,3.435,17.172,6.829l2.828,2.828V246.769z
	 M-1975.873,216h-28v-4h28V216z M-1975.873,204h-28v-4h28V204z M-1975.873,192h-28v-4h28V192z M-1975.873,180h-28v-4h28V180z"/>
<path fill="#1C75BC" d="M-2254.062,154.061c-8.684-8.687-20.684-14.06-33.938-14.06c-13.253,0-25.253,5.373-33.938,14.06
	c-8.687,8.686-14.062,20.686-14.062,33.94c0,4.163,0.531,8.201,1.528,12.053c-0.506-0.032-1.015-0.054-1.528-0.054
	c-6.625,0-12.625,2.688-16.969,7.031c-4.344,4.342-7.031,10.342-7.031,16.969c0,7.016,2.687,13.371,7.031,17.969L-2336,260v-12
	c6.625,0,12.625-2.688,16.968-7.031c3.166-3.165,5.447-7.213,6.454-11.74c7.189,4.297,15.593,6.771,24.578,6.771v24l33.938-36.064
	C-2245.375,214.74-2240,202.033-2240,188C-2240,174.746-2245.375,162.746-2254.062,154.061 M-2256.976,221.194L-2284,249.912V236v-4
	h-4c-8.664,0-16.939-2.495-24.021-7.132c0.01-0.288,0.022-0.577,0.022-0.868c0-6.627-2.688-12.627-7.032-16.969
	c-3.017-3.018-6.836-5.233-11.107-6.307c-1.225-4.074-1.861-8.35-1.861-12.724c0-11.752,4.578-22.8,12.891-31.112
	c8.308-8.311,19.355-12.888,31.108-12.888s22.801,4.577,31.109,12.889C-2248.577,165.2-2244,176.249-2244,188
	C-2244,200.549-2248.606,212.336-2256.976,221.194"/>
<path fill="#1C75BC" d="M-2288,182c-3.313,0-6,2.686-6,6s2.687,6,6,6s6-2.686,6-6S-2284.687,182-2288,182"/>
<path fill="#1C75BC" d="M-2268,182c-3.313,0-6,2.686-6,6s2.687,6,6,6s6-2.686,6-6S-2264.687,182-2268,182"/>
<path fill="#1C75BC" d="M-2308,182c-3.313,0-6,2.686-6,6s2.687,6,6,6s6-2.686,6-6S-2304.687,182-2308,182"/>
<path fill="#1C75BC" d="M-2111.587,27.396v16v80h120v-80v-16H-2111.587z M-1995.587,119.396h-112v-22h112V119.396z
	 M-1995.587,93.396h-112v-20h112V93.396z M-1995.587,69.396h-112v-22h112V69.396z"/>
<path fill="#028571" d="M-1496.856,117.317c0-3.785-0.382-7.469-0.956-11.096l22.504-19.687l-19.119-31.384l-26.838,8.767
	c-6.415-5.579-13.84-9.991-21.971-12.987l-5.949-25.959h-36.938l-5.948,25.959c-8.132,2.996-15.562,7.408-21.979,12.991
	l-26.834-8.773L-1660,86.535l22.5,19.693c-0.571,3.621-0.953,7.308-0.953,11.089c0,3.784,0.382,7.47,0.953,11.092l-22.5,19.689
	l19.121,31.383l26.828-8.767c6.417,5.581,13.847,9.994,21.979,12.988l5.948,25.96h36.938l5.949-25.96
	c8.131-2.994,15.556-7.407,21.971-12.986l26.835,8.769l19.122-31.386l-22.504-19.684
	C-1497.238,124.79-1496.856,121.102-1496.856,117.317 M-1483.263,149.321l-13.892,22.798l-22.199-7.255l-3.318-1.084l-2.634,2.291
	c-5.913,5.142-12.661,9.132-20.06,11.854l-3.129,1.153l-0.745,3.25l-4.853,21.179h-27.128l-4.853-21.179l-0.746-3.25l-3.128-1.153
	c-7.402-2.727-14.152-6.714-20.064-11.857l-2.634-2.291l-3.318,1.084l-22.195,7.255l-13.891-22.795l18.602-16.279l2.558-2.237
	l-0.53-3.354c-0.59-3.746-0.876-7.06-0.876-10.133c0-3.071,0.286-6.383,0.876-10.13l0.53-3.356l-2.558-2.236l-18.602-16.279
	l13.886-22.798l22.2,7.256l3.318,1.085l2.634-2.292c5.912-5.143,12.662-9.131,20.064-11.856l3.128-1.153l0.746-3.25l4.853-21.179
	h27.128l4.853,21.179l0.745,3.25l3.129,1.153c7.398,2.724,14.146,6.712,20.06,11.854l2.634,2.291l3.315-1.083l22.205-7.252
	l13.889,22.795l-18.604,16.274l-2.559,2.24l0.532,3.358c0.592,3.738,0.881,7.054,0.881,10.132c0,3.081-0.289,6.396-0.881,10.136
	l-0.532,3.356l2.559,2.24L-1483.263,149.321z"/>
<path fill="#028571" d="M-1567.654,80.379c-20.405,0-36.938,16.526-36.938,36.938c0,20.411,16.533,36.938,36.938,36.938
	c20.411,0,36.938-16.527,36.938-36.938C-1530.717,96.905-1547.243,80.379-1567.654,80.379 M-1567.654,129.63
	c-6.794,0-12.312-5.513-12.312-12.312c0-6.8,5.519-12.313,12.312-12.313c6.793,0,12.312,5.513,12.312,12.313
	C-1555.342,124.117-1560.861,129.63-1567.654,129.63"/>
<path fill="#028571" d="M-1441.449,282.684c0-3.784-0.382-7.467-0.956-11.095l22.504-19.687l-19.119-31.384l-26.838,8.766
	c-6.415-5.579-13.84-9.988-21.971-12.985l-5.949-25.96h-36.938l-5.948,25.96c-8.132,2.997-15.561,7.406-21.979,12.992l-26.834-8.775
	l-19.115,31.387l22.5,19.692c-0.571,3.622-0.953,7.308-0.953,11.089c0,3.785,0.382,7.471,0.953,11.093l-22.5,19.689l19.121,31.383
	l26.828-8.766c6.418,5.579,13.847,9.992,21.979,12.986l5.948,25.96h36.938l5.949-25.96c8.131-2.994,15.556-7.407,21.971-12.986
	l26.835,8.769l19.122-31.386l-22.504-19.684C-1441.831,290.157-1441.449,286.469-1441.449,282.684 M-1427.855,314.689
	l-13.892,22.798l-22.199-7.257l-3.318-1.082l-2.634,2.29c-5.913,5.141-12.661,9.133-20.059,11.854l-3.13,1.154l-0.745,3.249
	l-4.852,21.178h-27.129l-4.853-21.178l-0.746-3.249l-3.127-1.154c-7.402-2.727-14.153-6.713-20.065-11.856l-2.634-2.29l-3.318,1.082
	l-22.195,7.256l-13.891-22.794l18.602-16.281l2.558-2.236l-0.53-3.354c-0.589-3.746-0.876-7.059-0.876-10.134
	c0-3.069,0.287-6.382,0.876-10.13l0.53-3.354l-2.558-2.237l-18.602-16.28l13.886-22.798l22.2,7.257l3.318,1.085l2.634-2.291
	c5.912-5.143,12.663-9.132,20.065-11.858l3.127-1.151l0.746-3.25l4.853-21.18h27.129l4.852,21.18l0.745,3.25l3.13,1.151
	c7.397,2.727,14.146,6.713,20.059,11.855l2.634,2.291l3.315-1.085l22.205-7.251l13.889,22.795l-18.604,16.274l-2.559,2.239
	l0.532,3.358c0.592,3.736,0.881,7.052,0.881,10.13c0,3.081-0.289,6.397-0.881,10.137l-0.532,3.357l2.559,2.239L-1427.855,314.689z"
	/>
<path fill="#028571" d="M-1512.247,245.746c-20.405,0-36.938,16.526-36.938,36.938s16.533,36.938,36.938,36.938
	c20.411,0,36.938-16.527,36.938-36.938S-1491.836,245.746-1512.247,245.746 M-1512.247,294.996c-6.794,0-12.312-5.513-12.312-12.312
	s5.519-12.312,12.312-12.312s12.312,5.513,12.312,12.312S-1505.453,294.996-1512.247,294.996"/>
<path fill="#028571" d="M-1321.547,154.255c0-3.785-0.382-7.468-0.956-11.095l22.503-19.687l-19.118-31.385l-26.838,8.767
	c-6.415-5.579-13.84-9.99-21.972-12.987l-5.948-25.958h-36.938l-5.949,25.958c-8.131,2.997-15.561,7.408-21.979,12.992
	l-26.833-8.775l-19.116,31.388l22.501,19.692c-0.571,3.621-0.953,7.308-0.953,11.089c0,3.785,0.382,7.47,0.953,11.092
	l-22.501,19.689l19.122,31.385l26.827-8.769c6.418,5.582,13.848,9.995,21.979,12.989l5.949,25.96h36.938l5.948-25.96
	c8.132-2.994,15.557-7.407,21.972-12.988l26.835,8.771l19.121-31.388l-22.503-19.684
	C-1321.929,161.729-1321.547,158.04-1321.547,154.255 M-1307.954,186.259l-13.891,22.797l-22.2-7.255l-3.318-1.083l-2.633,2.291
	c-5.913,5.142-12.662,9.133-20.06,11.855l-3.129,1.151l-0.746,3.25l-4.852,21.181h-27.128l-4.854-21.181l-0.745-3.25l-3.128-1.151
	c-7.402-2.727-14.152-6.715-20.065-11.858l-2.633-2.291l-3.319,1.083l-22.194,7.255l-13.892-22.794l18.602-16.279l2.559-2.236
	l-0.531-3.355c-0.589-3.746-0.876-7.06-0.876-10.133c0-3.071,0.287-6.383,0.876-10.13l0.531-3.356l-2.559-2.236l-18.602-16.279
	l13.887-22.799l22.199,7.257l3.319,1.085l2.633-2.291c5.913-5.143,12.663-9.132,20.065-11.857l3.128-1.153l0.745-3.25l4.854-21.179
	h27.128l4.852,21.179l0.746,3.25l3.129,1.153c7.397,2.725,14.146,6.711,20.06,11.854l2.633,2.291l3.315-1.085l22.206-7.25
	l13.888,22.794l-18.604,16.275l-2.558,2.239l0.532,3.358c0.592,3.738,0.88,7.054,0.88,10.132c0,3.081-0.288,6.397-0.88,10.136
	l-0.532,3.356l2.558,2.239L-1307.954,186.259z"/>
<path fill="#028571" d="M-1392.346,117.317c-20.404,0-36.938,16.525-36.938,36.938c0,20.411,16.533,36.938,36.938,36.938
	c20.411,0,36.938-16.527,36.938-36.938C-1355.407,133.843-1371.935,117.317-1392.346,117.317 M-1392.346,166.568
	c-6.793,0-12.312-5.513-12.312-12.313s5.52-12.312,12.312-12.312c6.794,0,12.312,5.513,12.312,12.312
	S-1385.552,166.568-1392.346,166.568"/>
<path fill="#028571" d="M-541.396,209.602l-15.792-15.785c-11.36,11.364-24.658,20.214-39.602,26.388l-25.76-74.07
	c13.813-7.595,23.184-22.274,23.184-39.152c0-20.797-14.241-38.224-33.491-43.191V39.999h-22.327V63.79
	c-19.251,4.968-33.491,22.395-33.491,43.191c0,16.878,9.37,31.558,23.186,39.152l-73.115,210.198l10.548,3.669l39.968-114.913
	c14.284,4.544,29.171,6.844,44.068,6.844c14.896,0,29.788-2.303,44.069-6.844l39.967,114.913l10.548-3.669l-40.008-115.019
	C-571.298,234.001-555.157,223.368-541.396,209.602 M-644.021,95.817c6.165,0,11.164,4.999,11.164,11.164
	s-4.999,11.164-11.164,11.164s-11.163-4.999-11.163-11.164S-650.186,95.817-644.021,95.817 M-680.752,224.001l25.669-73.801
	c3.543,0.903,7.233,1.437,11.062,1.437c3.827,0,7.521-0.533,11.063-1.437l25.669,73.801
	C-631.12,231.452-656.92,231.452-680.752,224.001"/>
<g>
	<path fill="#028571" d="M-1038.667,40h-10.666h-117.334v320h213.334V136v-10.667L-1038.667,40z M-964,349.333h-192V50.667h106.667
		V136H-964V349.333z"/>
	<rect x="-1124" y="168" fill="#028571" width="128" height="10.667"/>
	<rect x="-1124" y="189.334" fill="#028571" width="128" height="10.666"/>
	<rect x="-1092" y="210.666" fill="#028571" width="64" height="10.668"/>
</g>
<g>
	<path fill="#028571" d="M-97.5,77.494C-120.656,54.328-152.656,40-188,40s-67.344,14.328-90.5,37.494
		C-301.666,100.655-316,132.655-316,168c0,11.102,1.416,21.869,4.076,32.143c-1.35-0.086-2.707-0.143-4.076-0.143
		c-17.668,0-33.668,7.166-45.25,18.75C-372.834,230.328-380,246.328-380,264c0,18.708,7.166,35.656,18.75,47.917L-316,360v-32
		c17.666,0,33.666-7.167,45.25-18.75c8.443-8.44,14.525-19.234,17.209-31.308C-234.369,289.401-211.959,296-188,296v64l90.5-96.172
		C-74.332,239.307-60,205.422-60,168C-60,132.655-74.332,100.655-97.5,77.494 M-105.268,256.518l-72.066,76.582V296v-10.667H-188
		c-23.104,0-45.172-6.653-64.057-19.018c0.025-0.769,0.057-1.539,0.057-2.315c0-17.672-7.166-33.672-18.75-45.25
		c-8.047-8.047-18.229-13.956-29.619-16.818c-3.266-10.864-4.965-22.266-4.965-33.932c0-31.34,12.209-60.801,34.379-82.966
		c22.152-22.163,51.613-34.367,82.955-34.367s60.803,12.204,82.959,34.37c22.17,22.162,34.375,51.623,34.375,82.963
		C-70.666,201.463-82.949,232.896-105.268,256.518"/>
	<path fill="#028571" d="M-188,151.999c-8.836,0-16,7.162-16,16.001c0,8.838,7.164,16,16,16s16-7.162,16-16
		C-172,159.161-179.164,151.999-188,151.999"/>
	<path fill="#028571" d="M-134.666,151.999c-8.836,0-16,7.162-16,16.001c0,8.838,7.164,16,16,16s16-7.162,16-16
		C-118.666,159.161-125.83,151.999-134.666,151.999"/>
	<path fill="#028571" d="M-241.334,151.999c-8.832,0-16,7.162-16,16.001c0,8.838,7.168,16,16,16c8.834,0,16-7.162,16-16
		C-225.334,159.161-232.5,151.999-241.334,151.999"/>
</g>
<g>
	<path fill="#028571" d="M40,93.333v21.333h21.333v192.001h128V114.666h128v192.001h21.334V114.666H360V93.333H40z M178.667,296H72
		V194.666h106.667V296z M178.667,184H72v-58.672h106.667V184z"/>
	<path fill="#028571" d="M126.667,166.666c5.896,0,10.666-4.775,10.666-10.666s-4.771-10.667-10.666-10.667
		c-5.896,0-10.667,4.776-10.667,10.667S120.771,166.666,126.667,166.666"/>
</g>
</svg>
